<?xml version="1.0" encoding="UTF-8"?>
<svg xmlns="http://www.w3.org/2000/svg" xmlns:xlink="http://www.w3.org/1999/xlink" width="840" height="870" viewBox="580 430 840 870">
  <defs>
    <clipPath id="clip-0">
      <path clip-rule="nonzero" d="M 801 1262 L 1199 1262 L 1199 1299 L 801 1299 Z M 801 1262 "/>
    </clipPath>
    <clipPath id="clip-1">
      <path clip-rule="nonzero" d="M 1198.539062 1280.828125 C 1198.539062 1290.769531 1109.648438 1298.828125 1000 1298.828125 C 890.347656 1298.828125 801.457031 1290.769531 801.457031 1280.828125 C 801.457031 1270.890625 890.347656 1262.828125 1000 1262.828125 C 1109.648438 1262.828125 1198.539062 1270.890625 1198.539062 1280.828125 Z M 1198.539062 1280.828125 "/>
    </clipPath>
    <clipPath id="clip-2">
      <path clip-rule="nonzero" d="M 1198.539062 1280.828125 C 1198.539062 1290.769531 1109.648438 1298.828125 1000 1298.828125 C 890.347656 1298.828125 801.457031 1290.769531 801.457031 1280.828125 C 801.457031 1270.890625 890.347656 1262.828125 1000 1262.828125 C 1109.648438 1262.828125 1198.539062 1270.890625 1198.539062 1280.828125 "/>
    </clipPath>
    <linearGradient id="linear-pattern-0" gradientUnits="userSpaceOnUse" x1="-0.238185" y1="0" x2="0.348844" y2="0" gradientTransform="matrix(-8.33333, 111.333, -111.333, -8.33333, 1000.46, 1274.67)">
      <stop offset="0" stop-color="rgb(100.00000%, 100.00000%, 100.00000%)" stop-opacity="1"/>
      <stop offset="0.25" stop-color="rgb(100.00000%, 100.00000%, 100.00000%)" stop-opacity="1"/>
      <stop offset="0.375" stop-color="rgb(100.00000%, 100.00000%, 100.00000%)" stop-opacity="1"/>
      <stop offset="0.40625" stop-color="rgb(99.60784%, 99.60784%, 99.60784%)" stop-opacity="1"/>
      <stop offset="0.421875" stop-color="rgb(98.82353%, 98.03922%, 99.60784%)" stop-opacity="1"/>
      <stop offset="0.4375" stop-color="rgb(97.25490%, 94.90196%, 98.82353%)" stop-opacity="1"/>
      <stop offset="0.453125" stop-color="rgb(95.29412%, 91.37255%, 98.43137%)" stop-opacity="1"/>
      <stop offset="0.46875" stop-color="rgb(93.33333%, 88.23529%, 97.64706%)" stop-opacity="1"/>
      <stop offset="0.484375" stop-color="rgb(91.76471%, 84.70588%, 97.25490%)" stop-opacity="1"/>
      <stop offset="0.5" stop-color="rgb(89.80392%, 81.56863%, 96.47059%)" stop-opacity="1"/>
      <stop offset="0.515625" stop-color="rgb(88.23529%, 78.03922%, 96.07843%)" stop-opacity="1"/>
      <stop offset="0.53125" stop-color="rgb(86.27451%, 74.90196%, 95.29412%)" stop-opacity="1"/>
      <stop offset="0.546875" stop-color="rgb(84.70588%, 71.37255%, 94.90196%)" stop-opacity="1"/>
      <stop offset="0.5625" stop-color="rgb(82.74510%, 68.23529%, 94.11765%)" stop-opacity="1"/>
      <stop offset="0.578125" stop-color="rgb(80.78431%, 64.70588%, 93.33333%)" stop-opacity="1"/>
      <stop offset="0.59375" stop-color="rgb(79.21569%, 61.56863%, 92.94118%)" stop-opacity="1"/>
      <stop offset="0.609375" stop-color="rgb(77.25490%, 58.03922%, 92.15686%)" stop-opacity="1"/>
      <stop offset="0.625" stop-color="rgb(75.68627%, 54.90196%, 91.76471%)" stop-opacity="1"/>
      <stop offset="0.640625" stop-color="rgb(73.72549%, 51.76471%, 90.98039%)" stop-opacity="1"/>
      <stop offset="0.65625" stop-color="rgb(72.54902%, 49.41176%, 90.58824%)" stop-opacity="1"/>
      <stop offset="0.671875" stop-color="rgb(72.54902%, 49.01961%, 90.19608%)" stop-opacity="1"/>
      <stop offset="0.6875" stop-color="rgb(72.15686%, 48.62745%, 89.80392%)" stop-opacity="1"/>
      <stop offset="0.703125" stop-color="rgb(71.76471%, 48.62745%, 89.41176%)" stop-opacity="1"/>
      <stop offset="0.71875" stop-color="rgb(71.37255%, 48.23529%, 89.01961%)" stop-opacity="1"/>
      <stop offset="0.734375" stop-color="rgb(71.37255%, 47.84314%, 88.62745%)" stop-opacity="1"/>
      <stop offset="0.75" stop-color="rgb(70.98039%, 47.45098%, 87.84314%)" stop-opacity="1"/>
      <stop offset="0.765625" stop-color="rgb(70.58824%, 47.05882%, 87.45098%)" stop-opacity="1"/>
      <stop offset="0.78125" stop-color="rgb(70.58824%, 46.66667%, 87.05882%)" stop-opacity="1"/>
      <stop offset="0.796875" stop-color="rgb(70.19608%, 46.66667%, 86.66667%)" stop-opacity="1"/>
      <stop offset="0.8125" stop-color="rgb(69.80392%, 46.27451%, 86.27451%)" stop-opacity="1"/>
      <stop offset="0.828125" stop-color="rgb(69.80392%, 45.88235%, 85.88235%)" stop-opacity="1"/>
      <stop offset="0.84375" stop-color="rgb(69.41176%, 45.49020%, 85.49020%)" stop-opacity="1"/>
      <stop offset="0.859375" stop-color="rgb(69.01961%, 45.09804%, 85.09804%)" stop-opacity="1"/>
      <stop offset="0.875" stop-color="rgb(69.01961%, 44.70588%, 84.70588%)" stop-opacity="1"/>
      <stop offset="0.890625" stop-color="rgb(68.62745%, 44.70588%, 84.31373%)" stop-opacity="1"/>
      <stop offset="0.90625" stop-color="rgb(68.23529%, 44.31373%, 83.52941%)" stop-opacity="1"/>
      <stop offset="0.921875" stop-color="rgb(68.23529%, 43.92157%, 83.13725%)" stop-opacity="1"/>
      <stop offset="0.9375" stop-color="rgb(67.84314%, 43.52941%, 82.74510%)" stop-opacity="1"/>
      <stop offset="0.953125" stop-color="rgb(67.45098%, 43.13725%, 82.35294%)" stop-opacity="1"/>
      <stop offset="0.96875" stop-color="rgb(67.45098%, 42.74510%, 81.96078%)" stop-opacity="1"/>
      <stop offset="0.984375" stop-color="rgb(67.05882%, 42.74510%, 81.56863%)" stop-opacity="1"/>
      <stop offset="1" stop-color="rgb(66.66667%, 42.35294%, 81.17647%)" stop-opacity="1"/>
    </linearGradient>
    <clipPath id="clip-3">
      <path clip-rule="nonzero" d="M 610 460 L 1390 460 L 1390 1241 L 610 1241 Z M 610 460 "/>
    </clipPath>
    <clipPath id="clip-4">
      <path clip-rule="nonzero" d="M 1318.230469 918.210938 C 1320.019531 897.808594 1316.441406 882.601562 1312.148438 871.71875 C 1311.039062 868.890625 1309.800781 866.199219 1308.46875 863.621094 C 1278.671875 805.898438 1197.351562 808.421875 1166.960938 741.511719 C 1158.050781 721.898438 1154.628906 701.539062 1153.308594 688.449219 C 1152.871094 684.078125 1152.671875 680.53125 1152.570312 678.078125 C 1188.320312 679.820312 1238.269531 690.589844 1278.050781 731.179688 C 1317.96875 771.910156 1326.089844 820.679688 1328.171875 838.648438 C 1328.191406 816.601562 1324.730469 782 1305.429688 746.160156 C 1296.828125 730.191406 1262.710938 672.75 1194.339844 655.738281 C 1181.539062 652.558594 1169.589844 651.300781 1159.058594 651.089844 C 1167.660156 649.738281 1176.398438 649.058594 1185.238281 649.058594 C 1207.828125 649.058594 1229.761719 653.488281 1250.410156 662.21875 C 1270.351562 670.660156 1288.25 682.730469 1303.621094 698.101562 C 1318.988281 713.46875 1331.058594 731.371094 1339.5 751.308594 C 1348.230469 771.960938 1352.660156 793.890625 1352.660156 816.480469 C 1352.660156 839.078125 1348.230469 861 1339.5 881.660156 C 1333.949219 894.769531 1326.828125 907 1318.230469 918.210938 Z M 1310.5 1020.539062 C 1302.070312 1041.320312 1289.699219 1059.960938 1273.71875 1075.941406 C 1257.738281 1091.910156 1239.109375 1104.289062 1218.328125 1112.710938 C 1205.128906 1118.058594 1191.449219 1121.679688 1177.449219 1123.53125 C 1193.128906 1110.359375 1201.359375 1097.078125 1206.019531 1086.351562 C 1207.230469 1083.558594 1208.261719 1080.789062 1209.140625 1078.03125 C 1228.878906 1016.140625 1169.601562 960.421875 1195.421875 891.609375 C 1202.988281 871.449219 1214.96875 854.628906 1223.289062 844.441406 C 1226.070312 841.050781 1228.441406 838.390625 1230.101562 836.589844 C 1254.160156 863.101562 1281.859375 906.03125 1281.28125 962.859375 C 1280.710938 1019.890625 1251.96875 1060.121094 1240.730469 1074.300781 C 1256.328125 1058.71875 1278.359375 1031.808594 1290.050781 992.820312 C 1295.261719 975.449219 1311.761719 910.699219 1275.441406 850.328125 C 1268.640625 839.019531 1261.070312 829.691406 1253.769531 822.089844 C 1260.808594 827.21875 1267.46875 832.910156 1273.71875 839.171875 C 1289.699219 855.140625 1302.070312 873.78125 1310.5 894.558594 C 1318.628906 914.621094 1322.761719 935.808594 1322.761719 957.550781 C 1322.761719 979.289062 1318.628906 1000.480469 1310.5 1020.539062 Z M 1099.609375 1190.421875 C 1078.960938 1199.148438 1057.03125 1203.578125 1034.441406 1203.578125 C 1011.851562 1203.578125 989.917969 1199.148438 969.265625 1190.421875 C 956.152344 1184.871094 943.921875 1177.75 932.714844 1169.160156 C 953.117188 1170.941406 968.324219 1167.371094 979.203125 1163.070312 C 982.03125 1161.960938 984.726562 1160.730469 987.300781 1159.398438 C 1045.019531 1129.589844 1042.5 1048.269531 1109.410156 1017.878906 C 1129.019531 1008.96875 1149.378906 1005.550781 1162.46875 1004.230469 C 1166.839844 1003.789062 1170.390625 1003.589844 1172.839844 1003.5 C 1171.109375 1039.25 1160.328125 1089.191406 1119.738281 1128.96875 C 1079.011719 1168.890625 1030.238281 1177.011719 1012.269531 1179.089844 C 1034.320312 1179.109375 1068.929688 1175.660156 1104.761719 1156.359375 C 1120.730469 1147.761719 1178.179688 1113.640625 1195.179688 1045.269531 C 1198.371094 1032.460938 1199.621094 1020.511719 1199.828125 1009.980469 C 1201.179688 1018.578125 1201.859375 1027.320312 1201.859375 1036.160156 C 1201.859375 1058.75 1197.429688 1080.679688 1188.699219 1101.328125 C 1180.269531 1121.269531 1168.199219 1139.179688 1152.828125 1154.550781 C 1137.460938 1169.921875 1119.550781 1181.988281 1099.609375 1190.421875 Z M 830.378906 1161.421875 C 809.597656 1152.988281 790.960938 1140.621094 774.984375 1124.640625 C 759.007812 1108.671875 746.636719 1090.03125 738.207031 1069.25 C 732.859375 1056.058594 729.242188 1042.371094 727.394531 1028.371094 C 740.5625 1044.058594 753.84375 1052.28125 764.570312 1056.941406 C 767.359375 1058.148438 770.132812 1059.191406 772.898438 1060.070312 C 834.785156 1079.808594 890.503906 1020.519531 959.308594 1046.351562 C 979.472656 1053.921875 996.292969 1065.890625 1006.480469 1074.21875 C 1009.871094 1076.988281 1012.53125 1079.359375 1014.328125 1081.019531 C 987.824219 1105.078125 944.890625 1132.78125 888.0625 1132.210938 C 831.027344 1131.628906 790.804688 1102.890625 776.625 1091.648438 C 792.203125 1107.25 819.117188 1129.28125 858.101562 1140.96875 C 875.476562 1146.179688 940.222656 1162.679688 1000.589844 1126.359375 C 1011.898438 1119.558594 1021.230469 1112 1028.828125 1104.699219 C 1023.699219 1111.730469 1018.011719 1118.390625 1011.761719 1124.640625 C 995.777344 1140.621094 977.144531 1152.988281 956.363281 1161.421875 C 936.300781 1169.558594 915.105469 1173.679688 893.371094 1173.679688 C 871.632812 1173.679688 850.441406 1169.558594 830.378906 1161.421875 Z M 696.378906 1003.75 C 681.007812 988.378906 668.9375 970.46875 660.503906 950.539062 C 651.769531 929.878906 647.339844 907.960938 647.339844 885.359375 C 647.339844 862.769531 651.769531 840.839844 660.503906 820.191406 C 666.050781 807.078125 673.167969 794.839844 681.765625 783.628906 C 679.980469 804.039062 683.554688 819.25 687.847656 830.121094 C 688.964844 832.949219 690.195312 835.648438 691.523438 838.21875 C 721.332031 895.941406 802.652344 893.421875 833.039062 960.328125 C 841.949219 979.941406 845.371094 1000.308594 846.6875 1013.398438 C 847.128906 1017.761719 847.332031 1021.308594 847.425781 1023.761719 C 811.675781 1022.03125 761.730469 1011.261719 721.949219 970.671875 C 682.027344 929.929688 673.910156 881.160156 671.832031 863.191406 C 671.816406 885.238281 675.265625 919.851562 694.566406 955.679688 C 703.164062 971.648438 737.285156 1029.101562 805.65625 1046.109375 C 818.457031 1049.289062 830.410156 1050.539062 840.941406 1050.75 C 832.339844 1052.101562 823.601562 1052.789062 814.761719 1052.789062 C 792.167969 1052.789062 770.242188 1048.359375 749.589844 1039.621094 C 729.648438 1031.191406 711.746094 1019.121094 696.378906 1003.75 Z M 689.503906 681.300781 C 697.929688 660.519531 710.300781 641.878906 726.277344 625.910156 C 742.253906 609.929688 760.890625 597.558594 781.671875 589.128906 C 794.863281 583.78125 808.546875 580.160156 822.554688 578.320312 C 806.867188 591.480469 798.636719 604.761719 793.980469 615.488281 C 792.769531 618.28125 791.734375 621.058594 790.855469 623.820312 C 771.117188 685.710938 830.402344 741.429688 804.578125 810.230469 C 797.007812 830.390625 785.03125 847.210938 776.707031 857.398438 C 773.929688 860.800781 771.5625 863.449219 769.898438 865.25 C 745.84375 838.75 718.144531 795.808594 718.71875 738.980469 C 719.289062 681.949219 748.035156 641.730469 759.273438 627.550781 C 743.671875 643.128906 721.640625 670.039062 709.949219 709.019531 C 704.738281 726.398438 688.242188 791.140625 724.5625 851.511719 C 731.363281 862.820312 738.925781 872.160156 746.226562 879.75 C 739.191406 874.628906 732.53125 868.929688 726.277344 862.679688 C 710.300781 846.699219 697.929688 828.058594 689.503906 807.28125 C 681.367188 787.21875 677.242188 766.03125 677.242188 744.289062 C 677.242188 722.558594 681.367188 701.359375 689.503906 681.300781 Z M 900.386719 511.429688 C 921.035156 502.691406 942.964844 498.261719 965.558594 498.261719 C 988.152344 498.261719 1010.078125 502.691406 1030.730469 511.429688 C 1043.851562 516.96875 1056.078125 524.089844 1067.289062 532.691406 C 1046.878906 530.898438 1031.679688 534.480469 1020.800781 538.769531 C 1017.96875 539.890625 1015.269531 541.121094 1012.699219 542.449219 C 954.980469 572.25 957.503906 653.570312 890.589844 683.960938 C 870.976562 692.871094 850.617188 696.289062 837.527344 697.609375 C 833.164062 698.050781 829.609375 698.25 827.160156 698.351562 C 828.894531 662.601562 839.667969 612.648438 880.253906 572.871094 C 920.988281 532.949219 969.757812 524.828125 987.730469 522.75 C 965.683594 522.738281 931.074219 526.191406 895.238281 545.488281 C 879.269531 554.089844 821.824219 588.210938 804.816406 656.578125 C 801.632812 669.378906 800.378906 681.328125 800.167969 691.859375 C 798.820312 683.261719 798.136719 674.519531 798.136719 665.679688 C 798.136719 643.089844 802.566406 621.160156 811.300781 600.511719 C 819.734375 580.570312 831.804688 562.671875 847.171875 547.300781 C 862.542969 531.929688 880.445312 519.859375 900.386719 511.429688 Z M 1159.570312 850.921875 C 1159.570312 939.050781 1088.128906 1010.488281 1000 1010.488281 C 911.871094 1010.488281 840.433594 939.050781 840.433594 850.921875 C 840.433594 762.789062 911.871094 691.351562 1000 691.351562 C 1088.128906 691.351562 1159.570312 762.789062 1159.570312 850.921875 Z M 1169.621094 540.421875 C 1190.398438 548.851562 1209.039062 561.21875 1225.019531 577.199219 C 1240.988281 593.179688 1253.359375 611.808594 1261.789062 632.589844 C 1267.140625 645.789062 1270.761719 659.46875 1272.609375 673.480469 C 1259.441406 657.789062 1246.160156 649.558594 1235.429688 644.898438 C 1232.640625 643.691406 1229.871094 642.660156 1227.101562 641.78125 C 1165.210938 622.039062 1109.5 681.328125 1040.691406 655.5 C 1020.53125 647.929688 1003.710938 635.949219 993.519531 627.628906 C 990.125 624.851562 987.46875 622.480469 985.667969 620.820312 C 1012.179688 596.769531 1055.109375 569.070312 1111.941406 569.640625 C 1168.96875 570.210938 1209.199219 598.960938 1223.371094 610.191406 C 1207.800781 594.589844 1180.878906 572.558594 1141.898438 560.871094 C 1124.519531 555.660156 1059.78125 539.171875 999.40625 575.480469 C 988.101562 582.28125 978.765625 589.851562 971.167969 597.148438 C 976.296875 590.109375 981.992188 583.449219 988.242188 577.199219 C 1004.21875 561.21875 1022.859375 548.851562 1043.640625 540.421875 C 1063.699219 532.289062 1084.890625 528.160156 1106.628906 528.160156 C 1128.371094 528.160156 1149.558594 532.289062 1169.621094 540.421875 Z M 1000 460.921875 C 784.609375 460.921875 610 635.53125 610 850.921875 C 610 1066.308594 784.609375 1240.921875 1000 1240.921875 C 1215.390625 1240.921875 1390 1066.308594 1390 850.921875 C 1390 635.53125 1215.390625 460.921875 1000 460.921875 Z M 1000 460.921875 "/>
    </clipPath>
    <clipPath id="clip-5">
      <path clip-rule="nonzero" d="M 1318.230469 918.210938 C 1320.019531 897.808594 1316.441406 882.601562 1312.148438 871.71875 C 1311.039062 868.890625 1309.800781 866.199219 1308.46875 863.621094 C 1278.671875 805.898438 1197.351562 808.421875 1166.960938 741.511719 C 1158.050781 721.898438 1154.628906 701.539062 1153.308594 688.449219 C 1152.871094 684.078125 1152.671875 680.53125 1152.570312 678.078125 C 1188.320312 679.820312 1238.269531 690.589844 1278.050781 731.179688 C 1317.96875 771.910156 1326.089844 820.679688 1328.171875 838.648438 C 1328.191406 816.601562 1324.730469 782 1305.429688 746.160156 C 1296.828125 730.191406 1262.710938 672.75 1194.339844 655.738281 C 1181.539062 652.558594 1169.589844 651.300781 1159.058594 651.089844 C 1167.660156 649.738281 1176.398438 649.058594 1185.238281 649.058594 C 1207.828125 649.058594 1229.761719 653.488281 1250.410156 662.21875 C 1270.351562 670.660156 1288.25 682.730469 1303.621094 698.101562 C 1318.988281 713.46875 1331.058594 731.371094 1339.5 751.308594 C 1348.230469 771.960938 1352.660156 793.890625 1352.660156 816.480469 C 1352.660156 839.078125 1348.230469 861 1339.5 881.660156 C 1333.949219 894.769531 1326.828125 907 1318.230469 918.210938 Z M 1310.5 1020.539062 C 1302.070312 1041.320312 1289.699219 1059.960938 1273.71875 1075.941406 C 1257.738281 1091.910156 1239.109375 1104.289062 1218.328125 1112.710938 C 1205.128906 1118.058594 1191.449219 1121.679688 1177.449219 1123.53125 C 1193.128906 1110.359375 1201.359375 1097.078125 1206.019531 1086.351562 C 1207.230469 1083.558594 1208.261719 1080.789062 1209.140625 1078.03125 C 1228.878906 1016.140625 1169.601562 960.421875 1195.421875 891.609375 C 1202.988281 871.449219 1214.96875 854.628906 1223.289062 844.441406 C 1226.070312 841.050781 1228.441406 838.390625 1230.101562 836.589844 C 1254.160156 863.101562 1281.859375 906.03125 1281.28125 962.859375 C 1280.710938 1019.890625 1251.96875 1060.121094 1240.730469 1074.300781 C 1256.328125 1058.71875 1278.359375 1031.808594 1290.050781 992.820312 C 1295.261719 975.449219 1311.761719 910.699219 1275.441406 850.328125 C 1268.640625 839.019531 1261.070312 829.691406 1253.769531 822.089844 C 1260.808594 827.21875 1267.46875 832.910156 1273.71875 839.171875 C 1289.699219 855.140625 1302.070312 873.78125 1310.5 894.558594 C 1318.628906 914.621094 1322.761719 935.808594 1322.761719 957.550781 C 1322.761719 979.289062 1318.628906 1000.480469 1310.5 1020.539062 Z M 1099.609375 1190.421875 C 1078.960938 1199.148438 1057.03125 1203.578125 1034.441406 1203.578125 C 1011.851562 1203.578125 989.917969 1199.148438 969.265625 1190.421875 C 956.152344 1184.871094 943.921875 1177.75 932.714844 1169.160156 C 953.117188 1170.941406 968.324219 1167.371094 979.203125 1163.070312 C 982.03125 1161.960938 984.726562 1160.730469 987.300781 1159.398438 C 1045.019531 1129.589844 1042.5 1048.269531 1109.410156 1017.878906 C 1129.019531 1008.96875 1149.378906 1005.550781 1162.46875 1004.230469 C 1166.839844 1003.789062 1170.390625 1003.589844 1172.839844 1003.5 C 1171.109375 1039.25 1160.328125 1089.191406 1119.738281 1128.96875 C 1079.011719 1168.890625 1030.238281 1177.011719 1012.269531 1179.089844 C 1034.320312 1179.109375 1068.929688 1175.660156 1104.761719 1156.359375 C 1120.730469 1147.761719 1178.179688 1113.640625 1195.179688 1045.269531 C 1198.371094 1032.460938 1199.621094 1020.511719 1199.828125 1009.980469 C 1201.179688 1018.578125 1201.859375 1027.320312 1201.859375 1036.160156 C 1201.859375 1058.75 1197.429688 1080.679688 1188.699219 1101.328125 C 1180.269531 1121.269531 1168.199219 1139.179688 1152.828125 1154.550781 C 1137.460938 1169.921875 1119.550781 1181.988281 1099.609375 1190.421875 Z M 830.378906 1161.421875 C 809.597656 1152.988281 790.960938 1140.621094 774.984375 1124.640625 C 759.007812 1108.671875 746.636719 1090.03125 738.207031 1069.25 C 732.859375 1056.058594 729.242188 1042.371094 727.394531 1028.371094 C 740.5625 1044.058594 753.84375 1052.28125 764.570312 1056.941406 C 767.359375 1058.148438 770.132812 1059.191406 772.898438 1060.070312 C 834.785156 1079.808594 890.503906 1020.519531 959.308594 1046.351562 C 979.472656 1053.921875 996.292969 1065.890625 1006.480469 1074.21875 C 1009.871094 1076.988281 1012.53125 1079.359375 1014.328125 1081.019531 C 987.824219 1105.078125 944.890625 1132.78125 888.0625 1132.210938 C 831.027344 1131.628906 790.804688 1102.890625 776.625 1091.648438 C 792.203125 1107.25 819.117188 1129.28125 858.101562 1140.96875 C 875.476562 1146.179688 940.222656 1162.679688 1000.589844 1126.359375 C 1011.898438 1119.558594 1021.230469 1112 1028.828125 1104.699219 C 1023.699219 1111.730469 1018.011719 1118.390625 1011.761719 1124.640625 C 995.777344 1140.621094 977.144531 1152.988281 956.363281 1161.421875 C 936.300781 1169.558594 915.105469 1173.679688 893.371094 1173.679688 C 871.632812 1173.679688 850.441406 1169.558594 830.378906 1161.421875 Z M 696.378906 1003.75 C 681.007812 988.378906 668.9375 970.46875 660.503906 950.539062 C 651.769531 929.878906 647.339844 907.960938 647.339844 885.359375 C 647.339844 862.769531 651.769531 840.839844 660.503906 820.191406 C 666.050781 807.078125 673.167969 794.839844 681.765625 783.628906 C 679.980469 804.039062 683.554688 819.25 687.847656 830.121094 C 688.964844 832.949219 690.195312 835.648438 691.523438 838.21875 C 721.332031 895.941406 802.652344 893.421875 833.039062 960.328125 C 841.949219 979.941406 845.371094 1000.308594 846.6875 1013.398438 C 847.128906 1017.761719 847.332031 1021.308594 847.425781 1023.761719 C 811.675781 1022.03125 761.730469 1011.261719 721.949219 970.671875 C 682.027344 929.929688 673.910156 881.160156 671.832031 863.191406 C 671.816406 885.238281 675.265625 919.851562 694.566406 955.679688 C 703.164062 971.648438 737.285156 1029.101562 805.65625 1046.109375 C 818.457031 1049.289062 830.410156 1050.539062 840.941406 1050.75 C 832.339844 1052.101562 823.601562 1052.789062 814.761719 1052.789062 C 792.167969 1052.789062 770.242188 1048.359375 749.589844 1039.621094 C 729.648438 1031.191406 711.746094 1019.121094 696.378906 1003.75 Z M 689.503906 681.300781 C 697.929688 660.519531 710.300781 641.878906 726.277344 625.910156 C 742.253906 609.929688 760.890625 597.558594 781.671875 589.128906 C 794.863281 583.78125 808.546875 580.160156 822.554688 578.320312 C 806.867188 591.480469 798.636719 604.761719 793.980469 615.488281 C 792.769531 618.28125 791.734375 621.058594 790.855469 623.820312 C 771.117188 685.710938 830.402344 741.429688 804.578125 810.230469 C 797.007812 830.390625 785.03125 847.210938 776.707031 857.398438 C 773.929688 860.800781 771.5625 863.449219 769.898438 865.25 C 745.84375 838.75 718.144531 795.808594 718.71875 738.980469 C 719.289062 681.949219 748.035156 641.730469 759.273438 627.550781 C 743.671875 643.128906 721.640625 670.039062 709.949219 709.019531 C 704.738281 726.398438 688.242188 791.140625 724.5625 851.511719 C 731.363281 862.820312 738.925781 872.160156 746.226562 879.75 C 739.191406 874.628906 732.53125 868.929688 726.277344 862.679688 C 710.300781 846.699219 697.929688 828.058594 689.503906 807.28125 C 681.367188 787.21875 677.242188 766.03125 677.242188 744.289062 C 677.242188 722.558594 681.367188 701.359375 689.503906 681.300781 Z M 900.386719 511.429688 C 921.035156 502.691406 942.964844 498.261719 965.558594 498.261719 C 988.152344 498.261719 1010.078125 502.691406 1030.730469 511.429688 C 1043.851562 516.96875 1056.078125 524.089844 1067.289062 532.691406 C 1046.878906 530.898438 1031.679688 534.480469 1020.800781 538.769531 C 1017.96875 539.890625 1015.269531 541.121094 1012.699219 542.449219 C 954.980469 572.25 957.503906 653.570312 890.589844 683.960938 C 870.976562 692.871094 850.617188 696.289062 837.527344 697.609375 C 833.164062 698.050781 829.609375 698.25 827.160156 698.351562 C 828.894531 662.601562 839.667969 612.648438 880.253906 572.871094 C 920.988281 532.949219 969.757812 524.828125 987.730469 522.75 C 965.683594 522.738281 931.074219 526.191406 895.238281 545.488281 C 879.269531 554.089844 821.824219 588.210938 804.816406 656.578125 C 801.632812 669.378906 800.378906 681.328125 800.167969 691.859375 C 798.820312 683.261719 798.136719 674.519531 798.136719 665.679688 C 798.136719 643.089844 802.566406 621.160156 811.300781 600.511719 C 819.734375 580.570312 831.804688 562.671875 847.171875 547.300781 C 862.542969 531.929688 880.445312 519.859375 900.386719 511.429688 Z M 1159.570312 850.921875 C 1159.570312 939.050781 1088.128906 1010.488281 1000 1010.488281 C 911.871094 1010.488281 840.433594 939.050781 840.433594 850.921875 C 840.433594 762.789062 911.871094 691.351562 1000 691.351562 C 1088.128906 691.351562 1159.570312 762.789062 1159.570312 850.921875 Z M 1169.621094 540.421875 C 1190.398438 548.851562 1209.039062 561.21875 1225.019531 577.199219 C 1240.988281 593.179688 1253.359375 611.808594 1261.789062 632.589844 C 1267.140625 645.789062 1270.761719 659.46875 1272.609375 673.480469 C 1259.441406 657.789062 1246.160156 649.558594 1235.429688 644.898438 C 1232.640625 643.691406 1229.871094 642.660156 1227.101562 641.78125 C 1165.210938 622.039062 1109.5 681.328125 1040.691406 655.5 C 1020.53125 647.929688 1003.710938 635.949219 993.519531 627.628906 C 990.125 624.851562 987.46875 622.480469 985.667969 620.820312 C 1012.179688 596.769531 1055.109375 569.070312 1111.941406 569.640625 C 1168.96875 570.210938 1209.199219 598.960938 1223.371094 610.191406 C 1207.800781 594.589844 1180.878906 572.558594 1141.898438 560.871094 C 1124.519531 555.660156 1059.78125 539.171875 999.40625 575.480469 C 988.101562 582.28125 978.765625 589.851562 971.167969 597.148438 C 976.296875 590.109375 981.992188 583.449219 988.242188 577.199219 C 1004.21875 561.21875 1022.859375 548.851562 1043.640625 540.421875 C 1063.699219 532.289062 1084.890625 528.160156 1106.628906 528.160156 C 1128.371094 528.160156 1149.558594 532.289062 1169.621094 540.421875 Z M 1000 460.921875 C 784.609375 460.921875 610 635.53125 610 850.921875 C 610 1066.308594 784.609375 1240.921875 1000 1240.921875 C 1215.390625 1240.921875 1390 1066.308594 1390 850.921875 C 1390 635.53125 1215.390625 460.921875 1000 460.921875 "/>
    </clipPath>
    <linearGradient id="linear-pattern-1" gradientUnits="userSpaceOnUse" x1="-0.203502" y1="0" x2="1.203497" y2="0" gradientTransform="matrix(-493.285, 604.241, -604.241, -493.285, 1246.64, 548.8)">
      <stop offset="0" stop-color="rgb(51.37255%, 20.00000%, 82.35294%)" stop-opacity="1"/>
      <stop offset="0.125" stop-color="rgb(51.37255%, 20.00000%, 82.35294%)" stop-opacity="1"/>
      <stop offset="0.140625" stop-color="rgb(51.37255%, 20.00000%, 82.35294%)" stop-opacity="1"/>
      <stop offset="0.144531" stop-color="rgb(51.37255%, 20.00000%, 82.35294%)" stop-opacity="1"/>
      <stop offset="0.148438" stop-color="rgb(51.37255%, 20.00000%, 82.35294%)" stop-opacity="1"/>
      <stop offset="0.152344" stop-color="rgb(51.37255%, 20.00000%, 82.35294%)" stop-opacity="1"/>
      <stop offset="0.15625" stop-color="rgb(51.37255%, 20.00000%, 82.35294%)" stop-opacity="1"/>
      <stop offset="0.160156" stop-color="rgb(51.37255%, 20.39216%, 81.96078%)" stop-opacity="1"/>
      <stop offset="0.164062" stop-color="rgb(50.98039%, 20.39216%, 81.96078%)" stop-opacity="1"/>
      <stop offset="0.167969" stop-color="rgb(50.98039%, 20.39216%, 81.96078%)" stop-opacity="1"/>
      <stop offset="0.171875" stop-color="rgb(50.98039%, 20.39216%, 81.96078%)" stop-opacity="1"/>
      <stop offset="0.175781" stop-color="rgb(50.98039%, 20.39216%, 81.56863%)" stop-opacity="1"/>
      <stop offset="0.179687" stop-color="rgb(50.98039%, 20.39216%, 81.56863%)" stop-opacity="1"/>
      <stop offset="0.183594" stop-color="rgb(50.98039%, 20.78431%, 81.56863%)" stop-opacity="1"/>
      <stop offset="0.1875" stop-color="rgb(50.98039%, 20.78431%, 81.17647%)" stop-opacity="1"/>
      <stop offset="0.191406" stop-color="rgb(50.98039%, 20.78431%, 81.17647%)" stop-opacity="1"/>
      <stop offset="0.195312" stop-color="rgb(50.58824%, 20.78431%, 81.17647%)" stop-opacity="1"/>
      <stop offset="0.199219" stop-color="rgb(50.58824%, 20.78431%, 81.17647%)" stop-opacity="1"/>
      <stop offset="0.203125" stop-color="rgb(50.58824%, 20.78431%, 80.78431%)" stop-opacity="1"/>
      <stop offset="0.207031" stop-color="rgb(50.58824%, 20.78431%, 80.78431%)" stop-opacity="1"/>
      <stop offset="0.210938" stop-color="rgb(50.58824%, 21.17647%, 80.78431%)" stop-opacity="1"/>
      <stop offset="0.214844" stop-color="rgb(50.58824%, 21.17647%, 80.78431%)" stop-opacity="1"/>
      <stop offset="0.21875" stop-color="rgb(50.58824%, 21.17647%, 80.39216%)" stop-opacity="1"/>
      <stop offset="0.222656" stop-color="rgb(50.58824%, 21.17647%, 80.39216%)" stop-opacity="1"/>
      <stop offset="0.226562" stop-color="rgb(50.58824%, 21.17647%, 80.39216%)" stop-opacity="1"/>
      <stop offset="0.230469" stop-color="rgb(50.19608%, 21.17647%, 80.00000%)" stop-opacity="1"/>
      <stop offset="0.234375" stop-color="rgb(50.19608%, 21.56863%, 80.00000%)" stop-opacity="1"/>
      <stop offset="0.238281" stop-color="rgb(50.19608%, 21.56863%, 80.00000%)" stop-opacity="1"/>
      <stop offset="0.242188" stop-color="rgb(50.19608%, 21.56863%, 80.00000%)" stop-opacity="1"/>
      <stop offset="0.246094" stop-color="rgb(50.19608%, 21.56863%, 79.60784%)" stop-opacity="1"/>
      <stop offset="0.25" stop-color="rgb(50.19608%, 21.56863%, 79.60784%)" stop-opacity="1"/>
      <stop offset="0.253906" stop-color="rgb(50.19608%, 21.56863%, 79.60784%)" stop-opacity="1"/>
      <stop offset="0.257812" stop-color="rgb(50.19608%, 21.56863%, 79.60784%)" stop-opacity="1"/>
      <stop offset="0.261719" stop-color="rgb(49.80392%, 21.96078%, 79.21569%)" stop-opacity="1"/>
      <stop offset="0.265625" stop-color="rgb(49.80392%, 21.96078%, 79.21569%)" stop-opacity="1"/>
      <stop offset="0.269531" stop-color="rgb(49.80392%, 21.96078%, 79.21569%)" stop-opacity="1"/>
      <stop offset="0.273438" stop-color="rgb(49.80392%, 21.96078%, 79.21569%)" stop-opacity="1"/>
      <stop offset="0.277344" stop-color="rgb(49.80392%, 21.96078%, 78.82353%)" stop-opacity="1"/>
      <stop offset="0.28125" stop-color="rgb(49.80392%, 21.96078%, 78.82353%)" stop-opacity="1"/>
      <stop offset="0.285156" stop-color="rgb(49.80392%, 21.96078%, 78.82353%)" stop-opacity="1"/>
      <stop offset="0.289062" stop-color="rgb(49.80392%, 22.35294%, 78.82353%)" stop-opacity="1"/>
      <stop offset="0.292969" stop-color="rgb(49.80392%, 22.35294%, 78.43137%)" stop-opacity="1"/>
      <stop offset="0.296875" stop-color="rgb(49.41176%, 22.35294%, 78.43137%)" stop-opacity="1"/>
      <stop offset="0.300781" stop-color="rgb(49.41176%, 22.35294%, 78.43137%)" stop-opacity="1"/>
      <stop offset="0.304688" stop-color="rgb(49.41176%, 22.35294%, 78.43137%)" stop-opacity="1"/>
      <stop offset="0.308594" stop-color="rgb(49.41176%, 22.35294%, 78.03922%)" stop-opacity="1"/>
      <stop offset="0.3125" stop-color="rgb(49.41176%, 22.74510%, 78.03922%)" stop-opacity="1"/>
      <stop offset="0.316406" stop-color="rgb(49.41176%, 22.74510%, 78.03922%)" stop-opacity="1"/>
      <stop offset="0.320312" stop-color="rgb(49.41176%, 22.74510%, 78.03922%)" stop-opacity="1"/>
      <stop offset="0.324219" stop-color="rgb(49.41176%, 22.74510%, 77.64706%)" stop-opacity="1"/>
      <stop offset="0.328125" stop-color="rgb(49.41176%, 22.74510%, 77.64706%)" stop-opacity="1"/>
      <stop offset="0.332031" stop-color="rgb(49.01961%, 22.74510%, 77.64706%)" stop-opacity="1"/>
      <stop offset="0.335938" stop-color="rgb(49.01961%, 22.74510%, 77.25490%)" stop-opacity="1"/>
      <stop offset="0.339844" stop-color="rgb(49.01961%, 23.13725%, 77.25490%)" stop-opacity="1"/>
      <stop offset="0.34375" stop-color="rgb(49.01961%, 23.13725%, 77.25490%)" stop-opacity="1"/>
      <stop offset="0.347656" stop-color="rgb(49.01961%, 23.13725%, 77.25490%)" stop-opacity="1"/>
      <stop offset="0.351562" stop-color="rgb(49.01961%, 23.13725%, 76.86275%)" stop-opacity="1"/>
      <stop offset="0.355469" stop-color="rgb(49.01961%, 23.13725%, 76.86275%)" stop-opacity="1"/>
      <stop offset="0.359375" stop-color="rgb(49.01961%, 23.13725%, 76.86275%)" stop-opacity="1"/>
      <stop offset="0.363281" stop-color="rgb(49.01961%, 23.13725%, 76.86275%)" stop-opacity="1"/>
      <stop offset="0.367187" stop-color="rgb(48.62745%, 23.13725%, 76.47059%)" stop-opacity="1"/>
      <stop offset="0.371094" stop-color="rgb(48.62745%, 23.13725%, 76.47059%)" stop-opacity="1"/>
      <stop offset="0.375" stop-color="rgb(48.62745%, 22.74510%, 76.47059%)" stop-opacity="1"/>
      <stop offset="0.378906" stop-color="rgb(48.62745%, 22.74510%, 76.47059%)" stop-opacity="1"/>
      <stop offset="0.382812" stop-color="rgb(48.62745%, 22.35294%, 76.07843%)" stop-opacity="1"/>
      <stop offset="0.386719" stop-color="rgb(48.23529%, 22.35294%, 76.07843%)" stop-opacity="1"/>
      <stop offset="0.390625" stop-color="rgb(48.23529%, 21.96078%, 76.07843%)" stop-opacity="1"/>
      <stop offset="0.394531" stop-color="rgb(48.23529%, 21.96078%, 76.07843%)" stop-opacity="1"/>
      <stop offset="0.398437" stop-color="rgb(48.23529%, 21.56863%, 75.68627%)" stop-opacity="1"/>
      <stop offset="0.402344" stop-color="rgb(48.23529%, 21.56863%, 75.68627%)" stop-opacity="1"/>
      <stop offset="0.40625" stop-color="rgb(47.84314%, 21.17647%, 75.68627%)" stop-opacity="1"/>
      <stop offset="0.410156" stop-color="rgb(47.84314%, 21.17647%, 75.68627%)" stop-opacity="1"/>
      <stop offset="0.414062" stop-color="rgb(47.84314%, 20.78431%, 75.29412%)" stop-opacity="1"/>
      <stop offset="0.417969" stop-color="rgb(47.84314%, 20.78431%, 75.29412%)" stop-opacity="1"/>
      <stop offset="0.421875" stop-color="rgb(47.84314%, 20.39216%, 75.29412%)" stop-opacity="1"/>
      <stop offset="0.425781" stop-color="rgb(47.45098%, 20.39216%, 75.29412%)" stop-opacity="1"/>
      <stop offset="0.429688" stop-color="rgb(47.45098%, 20.00000%, 74.90196%)" stop-opacity="1"/>
      <stop offset="0.433594" stop-color="rgb(47.45098%, 20.00000%, 74.90196%)" stop-opacity="1"/>
      <stop offset="0.4375" stop-color="rgb(47.45098%, 19.60784%, 74.90196%)" stop-opacity="1"/>
      <stop offset="0.441406" stop-color="rgb(47.45098%, 19.60784%, 74.90196%)" stop-opacity="1"/>
      <stop offset="0.445312" stop-color="rgb(47.05882%, 19.21569%, 74.90196%)" stop-opacity="1"/>
      <stop offset="0.449219" stop-color="rgb(47.05882%, 19.21569%, 74.50980%)" stop-opacity="1"/>
      <stop offset="0.453125" stop-color="rgb(47.05882%, 18.82353%, 74.50980%)" stop-opacity="1"/>
      <stop offset="0.457031" stop-color="rgb(47.05882%, 18.82353%, 74.50980%)" stop-opacity="1"/>
      <stop offset="0.460938" stop-color="rgb(47.05882%, 18.43137%, 74.50980%)" stop-opacity="1"/>
      <stop offset="0.464844" stop-color="rgb(46.66667%, 18.43137%, 74.11765%)" stop-opacity="1"/>
      <stop offset="0.46875" stop-color="rgb(46.66667%, 18.03922%, 74.11765%)" stop-opacity="1"/>
      <stop offset="0.472656" stop-color="rgb(46.66667%, 18.03922%, 74.11765%)" stop-opacity="1"/>
      <stop offset="0.476562" stop-color="rgb(46.66667%, 17.64706%, 74.11765%)" stop-opacity="1"/>
      <stop offset="0.480469" stop-color="rgb(46.66667%, 17.64706%, 73.72549%)" stop-opacity="1"/>
      <stop offset="0.484375" stop-color="rgb(46.27451%, 17.25490%, 73.72549%)" stop-opacity="1"/>
      <stop offset="0.488281" stop-color="rgb(46.27451%, 17.25490%, 73.72549%)" stop-opacity="1"/>
      <stop offset="0.492188" stop-color="rgb(46.27451%, 16.86275%, 73.72549%)" stop-opacity="1"/>
      <stop offset="0.496094" stop-color="rgb(46.27451%, 16.86275%, 73.33333%)" stop-opacity="1"/>
      <stop offset="0.5" stop-color="rgb(46.27451%, 16.47059%, 73.33333%)" stop-opacity="1"/>
      <stop offset="0.503906" stop-color="rgb(45.88235%, 16.47059%, 73.33333%)" stop-opacity="1"/>
      <stop offset="0.507812" stop-color="rgb(45.88235%, 16.07843%, 73.33333%)" stop-opacity="1"/>
      <stop offset="0.511719" stop-color="rgb(45.88235%, 16.07843%, 72.94118%)" stop-opacity="1"/>
      <stop offset="0.515625" stop-color="rgb(45.88235%, 16.07843%, 72.94118%)" stop-opacity="1"/>
      <stop offset="0.519531" stop-color="rgb(45.88235%, 15.68627%, 72.94118%)" stop-opacity="1"/>
      <stop offset="0.523438" stop-color="rgb(45.49020%, 15.68627%, 72.94118%)" stop-opacity="1"/>
      <stop offset="0.527344" stop-color="rgb(45.49020%, 15.29412%, 72.94118%)" stop-opacity="1"/>
      <stop offset="0.53125" stop-color="rgb(45.49020%, 15.29412%, 72.54902%)" stop-opacity="1"/>
      <stop offset="0.535156" stop-color="rgb(45.49020%, 14.90196%, 72.54902%)" stop-opacity="1"/>
      <stop offset="0.539062" stop-color="rgb(45.49020%, 14.90196%, 72.54902%)" stop-opacity="1"/>
      <stop offset="0.542969" stop-color="rgb(45.09804%, 14.50980%, 72.54902%)" stop-opacity="1"/>
      <stop offset="0.546875" stop-color="rgb(45.09804%, 14.50980%, 72.15686%)" stop-opacity="1"/>
      <stop offset="0.550781" stop-color="rgb(45.09804%, 14.11765%, 72.15686%)" stop-opacity="1"/>
      <stop offset="0.554688" stop-color="rgb(45.09804%, 14.11765%, 72.15686%)" stop-opacity="1"/>
      <stop offset="0.558594" stop-color="rgb(45.09804%, 13.72549%, 72.15686%)" stop-opacity="1"/>
      <stop offset="0.5625" stop-color="rgb(45.09804%, 13.72549%, 71.76471%)" stop-opacity="1"/>
      <stop offset="0.566406" stop-color="rgb(44.70588%, 13.33333%, 71.76471%)" stop-opacity="1"/>
      <stop offset="0.570312" stop-color="rgb(44.70588%, 13.33333%, 71.76471%)" stop-opacity="1"/>
      <stop offset="0.574219" stop-color="rgb(44.70588%, 12.94118%, 71.76471%)" stop-opacity="1"/>
      <stop offset="0.578125" stop-color="rgb(44.70588%, 12.94118%, 71.76471%)" stop-opacity="1"/>
      <stop offset="0.582031" stop-color="rgb(44.70588%, 12.54902%, 71.37255%)" stop-opacity="1"/>
      <stop offset="0.585938" stop-color="rgb(44.31373%, 12.54902%, 71.37255%)" stop-opacity="1"/>
      <stop offset="0.589844" stop-color="rgb(44.31373%, 12.54902%, 71.37255%)" stop-opacity="1"/>
      <stop offset="0.59375" stop-color="rgb(44.31373%, 12.15686%, 71.37255%)" stop-opacity="1"/>
      <stop offset="0.597656" stop-color="rgb(44.31373%, 12.15686%, 70.98039%)" stop-opacity="1"/>
      <stop offset="0.601562" stop-color="rgb(44.31373%, 11.76471%, 70.98039%)" stop-opacity="1"/>
      <stop offset="0.605469" stop-color="rgb(43.92157%, 11.76471%, 70.98039%)" stop-opacity="1"/>
      <stop offset="0.609375" stop-color="rgb(43.92157%, 11.37255%, 70.98039%)" stop-opacity="1"/>
      <stop offset="0.613281" stop-color="rgb(43.92157%, 11.37255%, 70.58824%)" stop-opacity="1"/>
      <stop offset="0.617188" stop-color="rgb(43.92157%, 10.98039%, 70.58824%)" stop-opacity="1"/>
      <stop offset="0.621094" stop-color="rgb(43.92157%, 10.98039%, 70.58824%)" stop-opacity="1"/>
      <stop offset="0.625" stop-color="rgb(43.92157%, 10.58824%, 70.58824%)" stop-opacity="1"/>
      <stop offset="0.628906" stop-color="rgb(43.52941%, 10.58824%, 70.58824%)" stop-opacity="1"/>
      <stop offset="0.632812" stop-color="rgb(43.52941%, 10.58824%, 70.19608%)" stop-opacity="1"/>
      <stop offset="0.636719" stop-color="rgb(43.52941%, 10.19608%, 70.19608%)" stop-opacity="1"/>
      <stop offset="0.640625" stop-color="rgb(43.52941%, 10.19608%, 70.19608%)" stop-opacity="1"/>
      <stop offset="0.644531" stop-color="rgb(43.52941%, 9.80392%, 70.19608%)" stop-opacity="1"/>
      <stop offset="0.648438" stop-color="rgb(43.13725%, 9.80392%, 70.19608%)" stop-opacity="1"/>
      <stop offset="0.652344" stop-color="rgb(43.13725%, 9.41176%, 69.80392%)" stop-opacity="1"/>
      <stop offset="0.65625" stop-color="rgb(43.13725%, 9.41176%, 69.80392%)" stop-opacity="1"/>
      <stop offset="0.660156" stop-color="rgb(43.13725%, 9.01961%, 69.80392%)" stop-opacity="1"/>
      <stop offset="0.664062" stop-color="rgb(43.13725%, 9.01961%, 69.80392%)" stop-opacity="1"/>
      <stop offset="0.667969" stop-color="rgb(43.13725%, 9.01961%, 69.41176%)" stop-opacity="1"/>
      <stop offset="0.671875" stop-color="rgb(42.74510%, 8.62745%, 69.41176%)" stop-opacity="1"/>
      <stop offset="0.675781" stop-color="rgb(42.74510%, 8.62745%, 69.41176%)" stop-opacity="1"/>
      <stop offset="0.679688" stop-color="rgb(42.74510%, 8.23529%, 69.41176%)" stop-opacity="1"/>
      <stop offset="0.683594" stop-color="rgb(42.74510%, 8.23529%, 69.41176%)" stop-opacity="1"/>
      <stop offset="0.6875" stop-color="rgb(42.74510%, 7.84314%, 69.01961%)" stop-opacity="1"/>
      <stop offset="0.691406" stop-color="rgb(42.74510%, 7.84314%, 69.01961%)" stop-opacity="1"/>
      <stop offset="0.695313" stop-color="rgb(42.35294%, 7.45098%, 69.01961%)" stop-opacity="1"/>
      <stop offset="0.699219" stop-color="rgb(42.35294%, 7.45098%, 69.01961%)" stop-opacity="1"/>
      <stop offset="0.703125" stop-color="rgb(42.35294%, 7.45098%, 68.62745%)" stop-opacity="1"/>
      <stop offset="0.707031" stop-color="rgb(42.35294%, 7.05882%, 68.62745%)" stop-opacity="1"/>
      <stop offset="0.710938" stop-color="rgb(42.35294%, 7.05882%, 68.62745%)" stop-opacity="1"/>
      <stop offset="0.714844" stop-color="rgb(41.96078%, 6.66667%, 68.62745%)" stop-opacity="1"/>
      <stop offset="0.71875" stop-color="rgb(41.96078%, 6.66667%, 68.62745%)" stop-opacity="1"/>
      <stop offset="0.722656" stop-color="rgb(41.96078%, 6.27451%, 68.23529%)" stop-opacity="1"/>
      <stop offset="0.726563" stop-color="rgb(41.96078%, 6.27451%, 68.23529%)" stop-opacity="1"/>
      <stop offset="0.730469" stop-color="rgb(41.96078%, 6.27451%, 68.23529%)" stop-opacity="1"/>
      <stop offset="0.734375" stop-color="rgb(41.96078%, 5.88235%, 68.23529%)" stop-opacity="1"/>
      <stop offset="0.738281" stop-color="rgb(41.56863%, 5.88235%, 68.23529%)" stop-opacity="1"/>
      <stop offset="0.742188" stop-color="rgb(41.56863%, 5.49020%, 67.84314%)" stop-opacity="1"/>
      <stop offset="0.746094" stop-color="rgb(41.56863%, 5.49020%, 67.84314%)" stop-opacity="1"/>
      <stop offset="0.75" stop-color="rgb(41.56863%, 5.49020%, 67.84314%)" stop-opacity="1"/>
      <stop offset="0.753906" stop-color="rgb(41.56863%, 5.09804%, 67.84314%)" stop-opacity="1"/>
      <stop offset="0.757812" stop-color="rgb(41.56863%, 5.09804%, 67.84314%)" stop-opacity="1"/>
      <stop offset="0.761719" stop-color="rgb(41.17647%, 4.70588%, 67.45098%)" stop-opacity="1"/>
      <stop offset="0.765625" stop-color="rgb(41.17647%, 4.70588%, 67.05882%)" stop-opacity="1"/>
      <stop offset="0.769531" stop-color="rgb(40.78431%, 4.70588%, 66.66667%)" stop-opacity="1"/>
      <stop offset="0.773437" stop-color="rgb(40.39216%, 4.70588%, 66.27451%)" stop-opacity="1"/>
      <stop offset="0.777344" stop-color="rgb(40.39216%, 4.70588%, 65.88235%)" stop-opacity="1"/>
      <stop offset="0.78125" stop-color="rgb(40.00000%, 4.70588%, 65.49020%)" stop-opacity="1"/>
      <stop offset="0.785156" stop-color="rgb(40.00000%, 4.70588%, 65.09804%)" stop-opacity="1"/>
      <stop offset="0.789062" stop-color="rgb(39.60784%, 4.70588%, 65.09804%)" stop-opacity="1"/>
      <stop offset="0.792969" stop-color="rgb(39.60784%, 4.70588%, 64.70588%)" stop-opacity="1"/>
      <stop offset="0.796875" stop-color="rgb(39.21569%, 4.70588%, 64.31373%)" stop-opacity="1"/>
      <stop offset="0.800781" stop-color="rgb(39.21569%, 4.70588%, 63.92157%)" stop-opacity="1"/>
      <stop offset="0.804687" stop-color="rgb(38.82353%, 4.70588%, 63.52941%)" stop-opacity="1"/>
      <stop offset="0.808594" stop-color="rgb(38.43137%, 4.70588%, 63.13725%)" stop-opacity="1"/>
      <stop offset="0.8125" stop-color="rgb(38.43137%, 4.70588%, 62.74510%)" stop-opacity="1"/>
      <stop offset="0.816406" stop-color="rgb(38.03922%, 4.70588%, 62.35294%)" stop-opacity="1"/>
      <stop offset="0.820312" stop-color="rgb(38.03922%, 4.31373%, 61.96078%)" stop-opacity="1"/>
      <stop offset="0.824219" stop-color="rgb(37.64706%, 4.31373%, 61.56863%)" stop-opacity="1"/>
      <stop offset="0.828125" stop-color="rgb(37.64706%, 4.31373%, 61.56863%)" stop-opacity="1"/>
      <stop offset="0.832031" stop-color="rgb(37.25490%, 4.31373%, 61.17647%)" stop-opacity="1"/>
      <stop offset="0.835938" stop-color="rgb(37.25490%, 4.31373%, 60.78431%)" stop-opacity="1"/>
      <stop offset="0.839844" stop-color="rgb(36.86275%, 4.31373%, 60.39216%)" stop-opacity="1"/>
      <stop offset="0.84375" stop-color="rgb(36.86275%, 4.31373%, 60.00000%)" stop-opacity="1"/>
      <stop offset="0.847656" stop-color="rgb(36.47059%, 4.31373%, 59.60784%)" stop-opacity="1"/>
      <stop offset="0.851562" stop-color="rgb(36.47059%, 4.31373%, 59.21569%)" stop-opacity="1"/>
      <stop offset="0.855469" stop-color="rgb(36.07843%, 4.31373%, 59.21569%)" stop-opacity="1"/>
      <stop offset="0.859375" stop-color="rgb(36.07843%, 4.31373%, 58.82353%)" stop-opacity="1"/>
      <stop offset="0.875" stop-color="rgb(36.07843%, 4.31373%, 58.82353%)" stop-opacity="1"/>
      <stop offset="1" stop-color="rgb(36.07843%, 4.31373%, 58.82353%)" stop-opacity="1"/>
    </linearGradient>
  </defs>
  <g clip-path="url(#clip-3)">
    <g clip-path="url(#clip-4)">
      <g clip-path="url(#clip-5)">
        <path fill-rule="nonzero" fill="url(#linear-pattern-1)" d="M 1772.109375 772.863281 L 921.941406 78.8125 L 227.890625 928.976562 L 1078.058594 1623.027344 Z M 1772.109375 772.863281 "/>
      </g>
    </g>
  </g>
</svg>
